HIERARCHY
ROOT Hips
{
	OFFSET 0.000000 121.760803 0.000000
	CHANNELS 6 Xposition Yposition Zposition Xrotation Yrotation Zrotation 
	JOINT Spine
	{
		OFFSET 0.072000 7.257294 -0.789700
		CHANNELS 3 Xrotation Yrotation Zrotation
		JOINT Spine1
		{
			OFFSET 0.000000 12.508769 -0.658067
			CHANNELS 3 Xrotation Yrotation Zrotation
			JOINT Spine1_split
			{
				OFFSET 0.000000 12.508769 -0.658067
				CHANNELS 3 Xrotation Yrotation Zrotation
				JOINT Spine2
				{
					OFFSET 0.000000 12.508769 -0.658067
					CHANNELS 3 Xrotation Yrotation Zrotation
					JOINT Neck
					{
						OFFSET 0.000000 14.033295 7.520400
						CHANNELS 3 Xrotation Yrotation Zrotation
						JOINT Head
						{
							OFFSET 0.000000 8.198502 5.703100
							CHANNELS 3 Xrotation Yrotation Zrotation
							JOINT HeadTop_End
							{
								OFFSET 0.000000 17.760803 13.332701
								CHANNELS 3 Xrotation Yrotation Zrotation
								End Site
								{
									OFFSET 0.000000 0.000000 0.000000
								}
							}
						}
					}
					JOINT LeftShoulder
					{
						OFFSET 6.292450 5.785301 -0.669000
						CHANNELS 3 Xrotation Yrotation Zrotation
						JOINT LeftShoulder_split
						{
							OFFSET 6.292450 5.785301 -0.669000
							CHANNELS 3 Xrotation Yrotation Zrotation
							JOINT LeftArm
							{
								OFFSET 13.907140 -6.093903 1.965100
								CHANNELS 3 Xrotation Yrotation Zrotation
								JOINT LeftForeArm
								{
									OFFSET 34.140198 0.000000 0.000000
									CHANNELS 3 Xrotation Yrotation Zrotation
									JOINT LeftHand
									{
										OFFSET 40.960209 0.000000 0.000000
										CHANNELS 3 Xrotation Yrotation Zrotation
										JOINT LeftHandThumb1
										{
											OFFSET 10.006996 -7.170425 9.573125
											CHANNELS 3 Xrotation Yrotation Zrotation
											JOINT LeftHandThumb2
											{
												OFFSET 1.835007 -1.059448 1.059443
												CHANNELS 3 Xrotation Yrotation Zrotation
												JOINT LeftHandThumb3
												{
													OFFSET 2.112267 -1.219513 1.219518
													CHANNELS 3 Xrotation Yrotation Zrotation
													JOINT LeftHandThumb4
													{
														OFFSET 4.843811 -2.796570 2.796576
														CHANNELS 3 Xrotation Yrotation Zrotation
														End Site
														{
															OFFSET 0.000000 0.000000 0.000000
														}
													}
												}
											}
										}
										JOINT LeftHandIndex1
										{
											OFFSET 18.389847 -0.922348 4.596882
											CHANNELS 3 Xrotation Yrotation Zrotation
											JOINT LeftHandIndex2
											{
												OFFSET 4.711273 0.000000 0.000000
												CHANNELS 3 Xrotation Yrotation Zrotation
												JOINT LeftHandIndex3
												{
													OFFSET 2.886131 0.000000 0.000000
													CHANNELS 3 Xrotation Yrotation Zrotation
													JOINT LeftHandIndex4
													{
														OFFSET 6.145912 0.000000 0.000000
														CHANNELS 3 Xrotation Yrotation Zrotation
														End Site
														{
															OFFSET 0.000000 0.000000 0.000000
														}
													}
												}
											}
										}
										JOINT LeftHandMiddle1
										{
											OFFSET 18.013008 0.000000 0.000000
											CHANNELS 3 Xrotation Yrotation Zrotation
											JOINT LeftHandMiddle2
											{
												OFFSET 4.946693 0.000000 0.000000
												CHANNELS 3 Xrotation Yrotation Zrotation
												JOINT LeftHandMiddle3
												{
													OFFSET 3.342232 0.000000 0.000000
													CHANNELS 3 Xrotation Yrotation Zrotation
													JOINT LeftHandMiddle4
													{
														OFFSET 4.461754 0.000000 0.000000
														CHANNELS 3 Xrotation Yrotation Zrotation
														End Site
														{
															OFFSET 0.000000 0.000000 0.000000
														}
													}
												}
											}
										}
										JOINT LeftHandRing1
										{
											OFFSET 15.849892 -0.102921 -4.126150
											CHANNELS 3 Xrotation Yrotation Zrotation
											JOINT LeftHandRing2
											{
												OFFSET 3.527054 0.000000 0.000000
												CHANNELS 3 Xrotation Yrotation Zrotation
												JOINT LeftHandRing3
												{
													OFFSET 2.961098 0.000000 0.000000
													CHANNELS 3 Xrotation Yrotation Zrotation
													JOINT LeftHandRing4
													{
														OFFSET 4.927200 0.000000 0.000000
														CHANNELS 3 Xrotation Yrotation Zrotation
														End Site
														{
															OFFSET 0.000000 0.000000 0.000000
														}
													}
												}
											}
										}
										JOINT LeftHandPinky1
										{
											OFFSET 12.791824 -0.832031 -6.799156
											CHANNELS 3 Xrotation Yrotation Zrotation
											JOINT LeftHandPinky2
											{
												OFFSET 3.327133 0.000000 0.000000
												CHANNELS 3 Xrotation Yrotation Zrotation
												JOINT LeftHandPinky3
												{
													OFFSET 3.014900 0.000000 0.000000
													CHANNELS 3 Xrotation Yrotation Zrotation
													JOINT LeftHandPinky4
													{
														OFFSET 5.847786 0.000000 0.000000
														CHANNELS 3 Xrotation Yrotation Zrotation
														End Site
														{
															OFFSET 0.000000 0.000000 0.000000
														}
													}
												}
											}
										}
									}
								}
							}
						}
					}
					JOINT RightShoulder
					{
						OFFSET -6.292450 5.785301 -0.669000
						CHANNELS 3 Xrotation Yrotation Zrotation
						JOINT RightShoulder_split
						{
							OFFSET -6.292450 5.785301 -0.669000
							CHANNELS 3 Xrotation Yrotation Zrotation
							JOINT RightArm
							{
								OFFSET -13.907140 -6.093903 1.965100
								CHANNELS 3 Xrotation Yrotation Zrotation
								JOINT RightForeArm
								{
									OFFSET -34.140198 0.000000 0.000000
									CHANNELS 3 Xrotation Yrotation Zrotation
									JOINT RightHand
									{
										OFFSET -40.960209 0.000000 0.000000
										CHANNELS 3 Xrotation Yrotation Zrotation
										JOINT RightHandThumb1
										{
											OFFSET -10.007050 -7.170456 9.573117
											CHANNELS 3 Xrotation Yrotation Zrotation
											JOINT RightHandThumb2
											{
												OFFSET -1.835007 -1.059448 1.059443
												CHANNELS 3 Xrotation Yrotation Zrotation
												JOINT RightHandThumb3
												{
													OFFSET -2.112267 -1.219513 1.219518
													CHANNELS 3 Xrotation Yrotation Zrotation
													JOINT RightHandThumb4
													{
														OFFSET -4.843834 -2.796585 2.796590
														CHANNELS 3 Xrotation Yrotation Zrotation
														End Site
														{
															OFFSET 0.000000 0.000000 0.000000
														}
													}
												}
											}
										}
										JOINT RightHandIndex1
										{
											OFFSET -18.389870 -0.922424 4.596786
											CHANNELS 3 Xrotation Yrotation Zrotation
											JOINT RightHandIndex2
											{
												OFFSET -4.711273 0.000000 0.000000
												CHANNELS 3 Xrotation Yrotation Zrotation
												JOINT RightHandIndex3
												{
													OFFSET -2.886131 0.000000 0.000000
													CHANNELS 3 Xrotation Yrotation Zrotation
													JOINT RightHandIndex4
													{
														OFFSET -6.145920 0.000000 0.000000
														CHANNELS 3 Xrotation Yrotation Zrotation
														End Site
														{
															OFFSET 0.000000 0.000000 0.000000
														}
													}
												}
											}
										}
										JOINT RightHandMiddle1
										{
											OFFSET -18.013008 0.000000 0.000000
											CHANNELS 3 Xrotation Yrotation Zrotation
											JOINT RightHandMiddle2
											{
												OFFSET -4.946693 0.000000 0.000000
												CHANNELS 3 Xrotation Yrotation Zrotation
												JOINT RightHandMiddle3
												{
													OFFSET -3.342232 0.000000 0.000000
													CHANNELS 3 Xrotation Yrotation Zrotation
													JOINT RightHandMiddle4
													{
														OFFSET -4.461754 0.000000 0.000000
														CHANNELS 3 Xrotation Yrotation Zrotation
														End Site
														{
															OFFSET 0.000000 0.000000 0.000000
														}
													}
												}
											}
										}
										JOINT RightHandRing1
										{
											OFFSET -15.849876 -0.102936 -4.126237
											CHANNELS 3 Xrotation Yrotation Zrotation
											JOINT RightHandRing2
											{
												OFFSET -3.527054 0.000000 0.000000
												CHANNELS 3 Xrotation Yrotation Zrotation
												JOINT RightHandRing3
												{
													OFFSET -2.961098 0.000000 0.000000
													CHANNELS 3 Xrotation Yrotation Zrotation
													JOINT RightHandRing4
													{
														OFFSET -4.927200 0.000000 0.000000
														CHANNELS 3 Xrotation Yrotation Zrotation
														End Site
														{
															OFFSET 0.000000 0.000000 0.000000
														}
													}
												}
											}
										}
										JOINT RightHandPinky1
										{
											OFFSET -12.791786 -0.832077 -6.799222
											CHANNELS 3 Xrotation Yrotation Zrotation
											JOINT RightHandPinky2
											{
												OFFSET -3.327133 0.000000 0.000000
												CHANNELS 3 Xrotation Yrotation Zrotation
												JOINT RightHandPinky3
												{
													OFFSET -3.014900 0.000000 0.000000
													CHANNELS 3 Xrotation Yrotation Zrotation
													JOINT RightHandPinky4
													{
														OFFSET -5.847786 0.000000 0.000000
														CHANNELS 3 Xrotation Yrotation Zrotation
														End Site
														{
															OFFSET 0.000000 0.000000 0.000000
														}
													}
												}
											}
										}
									}
								}
							}
						}
					}
				}
			}
		}
	}
	JOINT LeftUpLeg
	{
		OFFSET 13.026900 -6.336304 -1.092800
		CHANNELS 3 Xrotation Yrotation Zrotation
		JOINT LeftLeg
		{
			OFFSET 0.524474 -46.096886 9.782700
			CHANNELS 3 Xrotation Yrotation Zrotation
			JOINT LeftFoot
			{
				OFFSET -0.524474 -53.427422 -12.948200
				CHANNELS 3 Xrotation Yrotation Zrotation
				JOINT LeftToeBase
				{
					OFFSET 0.192200 -14.009700 16.364100
					CHANNELS 3 Xrotation Yrotation Zrotation
					JOINT LeftToe_End
					{
						OFFSET -1.784700 -0.561700 9.474800
						CHANNELS 3 Xrotation Yrotation Zrotation
						End Site
						{
							OFFSET 0.000000 0.000000 0.000000
						}
					}
				}
			}
		}
	}
	JOINT RightUpLeg
	{
		OFFSET -12.883000 -6.336304 -1.092800
		CHANNELS 3 Xrotation Yrotation Zrotation
		JOINT RightLeg
		{
			OFFSET -0.524587 -46.096825 9.782800
			CHANNELS 3 Xrotation Yrotation Zrotation
			JOINT RightFoot
			{
				OFFSET 0.524587 -53.427383 -12.948300
				CHANNELS 3 Xrotation Yrotation Zrotation
				JOINT RightToeBase
				{
					OFFSET -0.192200 -14.009700 16.364100
					CHANNELS 3 Xrotation Yrotation Zrotation
					JOINT RightToe_End
					{
						OFFSET 1.784700 -0.561700 9.474800
						CHANNELS 3 Xrotation Yrotation Zrotation
						End Site
						{
							OFFSET 0.000000 0.000000 0.000000
						}
					}
				}
			}
		}
	}
}
MOTION
Frames: 5
Frame Time: 0.016667
6.628041 100.679031 -3.210117 162.829278 -85.270868 172.692454 26.976706 -10.914997 8.946975 22.828263 -3.476726 1.160359 0.000000 0.000000 0.000000 22.831243 -3.513600 1.117195 5.617717 -1.103828 -3.287040 -24.500426 16.764406 -15.915160 -0.000000 0.000001 0.000000 -0.574389 -9.850080 11.644915 0.000000 0.000000 0.000000 7.953497 23.817324 -68.381491 0.001352 -83.763022 0.001285 -0.593563 -15.951290 -35.333327 -6.141200 -11.690806 -6.761685 9.914128 42.595519 3.409850 -0.422807 8.108103 27.509116 -0.000000 -0.000001 -0.000000 0.255316 3.378215 -45.814348 5.654095 5.847749 -88.067441 2.162142 4.544815 -50.866379 -0.000002 -0.000002 0.000001 -0.461470 3.841591 -39.722693 6.450750 5.820356 -95.892851 2.182893 4.561568 -51.127733 0.000000 -0.000001 -0.000001 0.469728 4.966825 -39.799444 8.181040 5.368611 -113.502998 3.200493 5.218127 -63.022989 0.000001 0.000000 0.000001 -3.762431 9.063702 -45.253821 5.342542 5.829016 -85.005311 8.716844 5.103337 -119.369167 -0.000001 0.000000 -0.000002 6.747075 21.058546 15.296852 0.000000 0.000000 0.000000 -49.806812 49.425868 42.155900 -0.000000 110.780976 0.000008 -30.368647 3.752448 19.633082 -7.341095 13.749669 7.412336 9.855738 -44.489086 -3.903294 -0.115777 -14.513092 -28.973884 0.000000 0.000000 -0.000000 -0.124375 -2.384782 45.108861 4.500590 -4.654540 88.071171 1.723233 -3.618376 50.920116 0.000000 0.000002 0.000002 -0.761625 -2.932909 39.031055 5.133883 -4.632753 95.881649 1.739744 -3.631697 51.181340 -0.000001 0.000000 -0.000001 0.154758 -4.068815 39.122675 6.509735 -4.273600 113.462877 2.549582 -4.153921 63.067337 -0.000001 0.000003 -0.000000 -4.198875 -8.025511 44.637772 4.252912 -4.639624 85.014805 6.935979 -4.062627 119.322312 0.000001 -0.000000 -0.000000 -14.571124 17.285457 16.600949 43.943538 8.941113 -7.119703 -16.137034 14.724237 -19.868356 -1.594036 -0.000027 0.000004 -0.000000 -0.000000 -0.000000 -45.337215 12.597016 -15.783619 46.130258 -3.447897 -8.198460 -6.383515 18.985040 13.668541 -0.013002 -0.000005 -0.000002 0.000000 0.000000 -0.000000 
6.546277 100.493683 -3.508165 166.817617 -87.765069 176.812042 26.565783 -10.881036 8.789472 22.569691 -3.466837 1.087101 0.000000 0.000000 0.000000 22.571364 -3.500725 1.047262 5.617276 -0.871023 -3.422225 -22.991131 17.514680 -15.694491 -0.000001 -0.000000 -0.000000 -0.552096 -9.621082 10.944547 0.000000 0.000000 0.000000 4.435612 26.897734 -66.445439 -0.016316 -87.948890 -0.016403 -0.585593 -15.037165 -35.679542 -6.141200 -11.690805 -6.761685 9.914139 42.595519 3.409847 -0.422807 8.108106 27.509116 -0.000001 -0.000005 -0.000001 0.255318 3.378216 -45.814337 5.654098 5.847749 -88.067441 2.162145 4.544814 -50.866379 0.000001 0.000001 -0.000001 -0.461468 3.841591 -39.722686 6.450746 5.820354 -95.892851 2.182892 4.561567 -51.127726 0.000001 -0.000001 0.000000 0.469730 4.966825 -39.799444 8.181040 5.368610 -113.502998 3.200496 5.218126 -63.022982 -0.000001 0.000001 0.000002 -3.762429 9.063703 -45.253825 5.342537 5.829010 -85.005317 8.716846 5.103335 -119.369167 0.000001 0.000002 0.000002 6.677391 21.397931 15.512683 0.000000 0.000000 0.000000 -47.870754 45.703979 40.482944 0.000063 111.430370 -0.000075 -31.320109 4.487719 19.907223 -7.341093 13.749662 7.412340 9.855737 -44.489089 -3.903289 -0.115776 -14.513093 -28.973884 -0.000000 0.000001 -0.000003 -0.124375 -2.384785 45.108864 4.500588 -4.654543 88.071171 1.723231 -3.618379 50.920116 -0.000001 0.000001 -0.000002 -0.761625 -2.932906 39.031055 5.133883 -4.632755 95.881649 1.739740 -3.631696 51.181343 0.000002 0.000000 0.000000 0.154757 -4.068815 39.122668 6.509738 -4.273597 113.462877 2.549581 -4.153921 63.067337 0.000001 -0.000001 0.000001 -4.198872 -8.025514 44.637769 4.252913 -4.639617 85.014805 6.935973 -4.062627 119.322312 0.000001 0.000003 -0.000002 -14.882917 16.952973 16.921392 44.273136 8.892620 -6.594237 -15.972809 12.589120 -20.054892 -1.594036 -0.000024 0.000004 -0.000000 -0.000000 -0.000000 -44.035281 12.345551 -16.826407 47.113272 -3.484513 -8.174138 -7.186559 17.184679 13.935225 -0.013002 -0.000004 -0.000002 0.000000 0.000000 -0.000000 
6.471041 100.359711 -3.792961 133.209685 -90.536172 143.321753 26.053354 -10.876540 8.639263 22.258176 -3.473020 1.011012 0.000000 0.000000 0.000000 22.258234 -3.504549 0.974824 5.582352 -0.609714 -3.490650 -21.431938 18.334343 -15.324479 -0.000002 -0.000001 -0.000000 -0.520526 -9.531909 10.234622 0.000000 0.000000 0.000000 1.463534 28.835467 -64.955065 0.003419 -92.579663 0.003239 -0.628405 -14.115746 -35.772402 -6.141203 -11.690808 -6.761684 9.914136 42.595525 3.409850 -0.422810 8.108102 27.509111 -0.000001 0.000000 -0.000000 0.255313 3.378215 -45.814341 5.654098 5.847746 -88.067455 2.162142 4.544816 -50.866382 0.000001 0.000005 -0.000001 -0.461472 3.841591 -39.722690 6.450747 5.820355 -95.892851 2.182888 4.561568 -51.127729 -0.000002 -0.000002 0.000000 0.469727 4.966826 -39.799447 8.181038 5.368610 -113.502998 3.200492 5.218129 -63.022975 0.000000 0.000001 0.000001 -3.762427 9.063703 -45.253825 5.342541 5.829012 -85.005304 8.716848 5.103335 -119.369167 0.000002 0.000001 -0.000001 6.665664 21.639405 15.541462 0.000000 0.000000 0.000000 -46.863786 42.548356 39.774452 -0.000011 111.812690 0.000021 -31.896270 5.342531 20.119352 -7.341092 13.749664 7.412338 9.855738 -44.489093 -3.903289 -0.115774 -14.513090 -28.973895 -0.000000 0.000002 0.000002 -0.124376 -2.384784 45.108868 4.500589 -4.654545 88.071171 1.723231 -3.618377 50.920116 0.000000 -0.000002 0.000003 -0.761624 -2.932909 39.031058 5.133883 -4.632756 95.881649 1.739744 -3.631696 51.181340 -0.000001 0.000002 0.000003 0.154757 -4.068815 39.122671 6.509737 -4.273597 113.462870 2.549584 -4.153920 63.067337 -0.000000 0.000003 -0.000000 -4.198871 -8.025515 44.637769 4.252912 -4.639619 85.014805 6.935977 -4.062627 119.322312 -0.000000 -0.000000 -0.000002 -15.271782 16.565529 17.253546 44.534456 8.853883 -6.073794 -15.769097 10.288300 -20.180842 -1.594036 -0.000031 0.000004 -0.000000 0.000002 0.000000 -42.572156 11.971446 -17.952471 47.972322 -3.538806 -8.094391 -7.957236 15.290891 14.201007 -0.013002 -0.000006 -0.000001 -0.000000 -0.000000 0.000001 
6.391197 100.264587 -4.061272 156.890415 -93.269901 167.142707 25.449007 -10.920649 8.441440 21.901867 -3.506256 0.903633 0.000000 0.000000 0.000000 21.899861 -3.536341 0.871498 5.510136 -0.303583 -3.526253 -19.806034 19.269331 -14.830564 0.000003 0.000001 -0.000000 -0.487518 -9.491401 9.564244 0.000000 0.000000 0.000000 -0.653368 29.569781 -64.021071 0.000144 -97.278744 0.000094 -0.727241 -13.207224 -35.636772 -6.141200 -11.690802 -6.761687 9.914133 42.595519 3.409849 -0.422807 8.108107 27.509116 0.000000 -0.000000 -0.000003 0.255318 3.378218 -45.814341 5.654096 5.847750 -88.067448 2.162142 4.544815 -50.866382 0.000000 -0.000000 -0.000000 -0.461468 3.841589 -39.722693 6.450750 5.820357 -95.892851 2.182891 4.561569 -51.127733 0.000001 0.000002 -0.000001 0.469728 4.966826 -39.799441 8.181042 5.368608 -113.502998 3.200492 5.218125 -63.022989 -0.000001 -0.000002 -0.000002 -3.762429 9.063703 -45.253825 5.342541 5.829012 -85.005311 8.716847 5.103336 -119.369167 -0.000003 0.000000 -0.000002 6.712772 21.856322 15.378775 0.000000 0.000000 0.000000 -46.521542 39.994128 39.770054 0.000023 111.959074 -0.000023 -32.012420 6.164899 20.344921 -7.341090 13.749659 7.412341 9.855734 -44.489083 -3.903287 -0.115773 -14.513092 -28.973891 0.000000 -0.000000 -0.000002 -0.124371 -2.384790 45.108864 4.500589 -4.654538 88.071171 1.723230 -3.618376 50.920119 0.000000 -0.000000 0.000001 -0.761623 -2.932913 39.031061 5.133883 -4.632756 95.881649 1.739747 -3.631695 51.181340 0.000002 0.000001 0.000001 0.154761 -4.068818 39.122675 6.509736 -4.273602 113.462877 2.549583 -4.153918 63.067344 0.000000 -0.000001 0.000000 -4.198869 -8.025517 44.637769 4.252914 -4.639625 85.014805 6.935977 -4.062628 119.322312 -0.000001 0.000003 -0.000003 -15.689655 16.178642 17.596627 44.725694 8.821835 -5.640632 -15.545500 7.847973 -20.227948 -1.594036 -0.000027 0.000004 -0.000000 0.000000 0.000000 -41.020706 11.505730 -19.162827 48.730190 -3.605068 -7.927520 -8.693494 13.406475 14.441976 -0.013002 -0.000005 -0.000001 0.000000 0.000001 -0.000000 
6.300675 100.187317 -4.308317 159.351974 -96.061365 169.774570 24.750157 -11.000988 8.153012 21.504875 -3.561793 0.743015 0.000000 0.000000 0.000000 21.500271 -3.591407 0.715264 5.405992 0.051949 -3.528792 -18.138629 20.379770 -14.230573 0.000001 -0.000001 0.000000 -0.460468 -9.394468 9.008915 0.000000 0.000000 0.000000 -1.728996 29.114057 -63.687095 -0.000178 -101.643795 -0.000184 -0.897564 -12.341186 -35.288002 -6.141202 -11.690805 -6.761686 9.914143 42.595525 3.409850 -0.422803 8.108105 27.509116 -0.000002 -0.000001 0.000001 0.255314 3.378217 -45.814344 5.654095 5.847742 -88.067448 2.162145 4.544814 -50.866382 0.000003 0.000002 -0.000001 -0.461470 3.841592 -39.722690 6.450745 5.820352 -95.892857 2.182889 4.561569 -51.127733 -0.000001 -0.000001 0.000000 0.469727 4.966825 -39.799444 8.181040 5.368606 -113.502998 3.200495 5.218125 -63.022989 0.000001 -0.000005 0.000001 -3.762429 9.063705 -45.253818 5.342539 5.829010 -85.005317 8.716844 5.103336 -119.369167 -0.000003 0.000000 -0.000000 6.805438 22.098821 15.068225 0.000000 0.000000 0.000000 -46.646487 38.030364 40.216478 0.000098 111.928086 -0.000101 -31.787851 6.824295 20.597243 -7.341089 13.749656 7.412341 9.855735 -44.489089 -3.903284 -0.115774 -14.513092 -28.973891 0.000000 0.000001 -0.000003 -0.124374 -2.384787 45.108868 4.500587 -4.654540 88.071171 1.723229 -3.618375 50.920112 0.000001 0.000005 0.000000 -0.761624 -2.932910 39.031061 5.133883 -4.632756 95.881649 1.739743 -3.631694 51.181340 -0.000000 0.000003 0.000001 0.154760 -4.068820 39.122675 6.509737 -4.273602 113.462877 2.549586 -4.153923 63.067337 -0.000000 0.000003 0.000001 -4.198869 -8.025516 44.637776 4.252914 -4.639623 85.014805 6.935975 -4.062627 119.322312 -0.000000 0.000002 -0.000001 -16.139394 15.824940 17.987501 44.880435 8.794222 -5.365496 -15.325969 5.277858 -20.185794 -1.594036 -0.000029 0.000004 0.000000 0.000000 0.000000 -39.462972 10.959730 -20.402625 49.410719 -3.678592 -7.717163 -9.400570 11.573314 14.670283 -0.013002 -0.000005 -0.000002 -0.000000 -0.000000 -0.000000 
